<svg id="Layer_1" data-name="Layer 1" xmlns="http://www.w3.org/2000/svg" viewBox="0 0 48 39.01"><defs><style>.cls-1{fill:#269;}</style></defs><title>twitter_blue</title><path class="cls-1" d="M48,4.62a19.55,19.55,0,0,1-5.66,1.55A9.88,9.88,0,0,0,46.68.72a19.72,19.72,0,0,1-6.25,2.39,9.86,9.86,0,0,0-16.78,9A28,28,0,0,1,3.34,1.8,9.86,9.86,0,0,0,6.39,15a9.82,9.82,0,0,1-4.46-1.23s0,0.08,0,.12a9.85,9.85,0,0,0,7.9,9.66,9.89,9.89,0,0,1-4.45.17,9.86,9.86,0,0,0,9.2,6.84A19.75,19.75,0,0,1,2.35,34.73,19.9,19.9,0,0,1,0,34.59,27.89,27.89,0,0,0,15.1,39c18.11,0,28-15,28-28,0-.43,0-0.85,0-1.28A20,20,0,0,0,48,4.62Z"/></svg>